<mxfile host="app.diagrams.net" modified="2023-05-28T20:45:37.973Z" agent="Mozilla/5.0 (Windows NT 10.0; Win64; x64) AppleWebKit/537.36 (KHTML, like Gecko) Chrome/113.0.0.0 Safari/537.36" etag="Ms8vyOZOePPti7tWMHMx" version="21.3.5" type="github">
  <diagram id="C5RBs43oDa-KdzZeNtuy" name="Page-1">
    <mxGraphModel dx="880" dy="1691" grid="1" gridSize="10" guides="1" tooltips="1" connect="1" arrows="1" fold="1" page="1" pageScale="1" pageWidth="827" pageHeight="1169" math="0" shadow="0">
      <root>
        <mxCell id="WIyWlLk6GJQsqaUBKTNV-0" />
        <mxCell id="WIyWlLk6GJQsqaUBKTNV-1" parent="WIyWlLk6GJQsqaUBKTNV-0" />
        <mxCell id="WIyWlLk6GJQsqaUBKTNV-2" value="" style="rounded=0;html=1;jettySize=auto;orthogonalLoop=1;fontSize=11;endArrow=block;endFill=0;endSize=8;strokeWidth=1;shadow=0;labelBackgroundColor=none;edgeStyle=orthogonalEdgeStyle;" parent="WIyWlLk6GJQsqaUBKTNV-1" source="WIyWlLk6GJQsqaUBKTNV-3" target="WIyWlLk6GJQsqaUBKTNV-6" edge="1">
          <mxGeometry relative="1" as="geometry" />
        </mxCell>
        <mxCell id="WIyWlLk6GJQsqaUBKTNV-3" value="done=false;&lt;br&gt;n = new array();" style="rounded=1;whiteSpace=wrap;html=1;fontSize=12;glass=0;strokeWidth=1;shadow=0;" parent="WIyWlLk6GJQsqaUBKTNV-1" vertex="1">
          <mxGeometry x="160" y="80" width="120" height="40" as="geometry" />
        </mxCell>
        <mxCell id="WIyWlLk6GJQsqaUBKTNV-4" value="Yes" style="rounded=0;html=1;jettySize=auto;orthogonalLoop=1;fontSize=11;endArrow=block;endFill=0;endSize=8;strokeWidth=1;shadow=0;labelBackgroundColor=none;edgeStyle=orthogonalEdgeStyle;exitX=0.5;exitY=1;exitDx=0;exitDy=0;" parent="WIyWlLk6GJQsqaUBKTNV-1" source="WIyWlLk6GJQsqaUBKTNV-6" edge="1">
          <mxGeometry x="0.0098" y="10" relative="1" as="geometry">
            <mxPoint x="10" y="10" as="offset" />
            <mxPoint x="170" y="260" as="sourcePoint" />
            <mxPoint x="220" y="290" as="targetPoint" />
          </mxGeometry>
        </mxCell>
        <mxCell id="WIyWlLk6GJQsqaUBKTNV-5" value="No" style="edgeStyle=orthogonalEdgeStyle;rounded=0;html=1;jettySize=auto;orthogonalLoop=1;fontSize=11;endArrow=block;endFill=0;endSize=8;strokeWidth=1;shadow=0;labelBackgroundColor=none;" parent="WIyWlLk6GJQsqaUBKTNV-1" source="WIyWlLk6GJQsqaUBKTNV-6" edge="1">
          <mxGeometry x="-0.116" y="25" relative="1" as="geometry">
            <mxPoint as="offset" />
            <mxPoint x="360" y="205" as="targetPoint" />
          </mxGeometry>
        </mxCell>
        <mxCell id="WIyWlLk6GJQsqaUBKTNV-6" value="done=false" style="rhombus;whiteSpace=wrap;html=1;shadow=0;fontFamily=Helvetica;fontSize=12;align=center;strokeWidth=1;spacing=6;spacingTop=-4;" parent="WIyWlLk6GJQsqaUBKTNV-1" vertex="1">
          <mxGeometry x="170" y="170" width="100" height="70" as="geometry" />
        </mxCell>
        <mxCell id="5Jb40xs0zZdn_Tac0p15-0" value="array n ;&lt;br&gt;boolean done;" style="whiteSpace=wrap;html=1;aspect=fixed;" vertex="1" parent="WIyWlLk6GJQsqaUBKTNV-1">
          <mxGeometry x="180" y="-20" width="80" height="80" as="geometry" />
        </mxCell>
        <mxCell id="5Jb40xs0zZdn_Tac0p15-1" value="" style="endArrow=classic;html=1;rounded=0;exitX=0.5;exitY=1;exitDx=0;exitDy=0;" edge="1" parent="WIyWlLk6GJQsqaUBKTNV-1" source="5Jb40xs0zZdn_Tac0p15-0">
          <mxGeometry width="50" height="50" relative="1" as="geometry">
            <mxPoint x="390" y="110" as="sourcePoint" />
            <mxPoint x="220" y="70" as="targetPoint" />
          </mxGeometry>
        </mxCell>
        <mxCell id="5Jb40xs0zZdn_Tac0p15-2" value="int todo = input(&quot;adicionar outro numero? response: y/n&quot;);" style="shape=parallelogram;perimeter=parallelogramPerimeter;whiteSpace=wrap;html=1;fixedSize=1;" vertex="1" parent="WIyWlLk6GJQsqaUBKTNV-1">
          <mxGeometry x="120" y="490" width="200" height="100" as="geometry" />
        </mxCell>
        <mxCell id="5Jb40xs0zZdn_Tac0p15-4" value="todo = n" style="rhombus;whiteSpace=wrap;html=1;" vertex="1" parent="WIyWlLk6GJQsqaUBKTNV-1">
          <mxGeometry x="190" y="690" width="80" height="80" as="geometry" />
        </mxCell>
        <mxCell id="5Jb40xs0zZdn_Tac0p15-5" value="&amp;nbsp;done=true;" style="rounded=0;whiteSpace=wrap;html=1;" vertex="1" parent="WIyWlLk6GJQsqaUBKTNV-1">
          <mxGeometry x="160" y="850" width="120" height="60" as="geometry" />
        </mxCell>
        <mxCell id="5Jb40xs0zZdn_Tac0p15-6" value="" style="endArrow=classic;html=1;rounded=0;entryX=0.5;entryY=0;entryDx=0;entryDy=0;" edge="1" parent="WIyWlLk6GJQsqaUBKTNV-1" target="5Jb40xs0zZdn_Tac0p15-4">
          <mxGeometry width="50" height="50" relative="1" as="geometry">
            <mxPoint x="220" y="600" as="sourcePoint" />
            <mxPoint x="440" y="510" as="targetPoint" />
          </mxGeometry>
        </mxCell>
        <mxCell id="5Jb40xs0zZdn_Tac0p15-7" value="" style="endArrow=classic;html=1;rounded=0;exitX=0.5;exitY=1;exitDx=0;exitDy=0;" edge="1" parent="WIyWlLk6GJQsqaUBKTNV-1" source="5Jb40xs0zZdn_Tac0p15-4">
          <mxGeometry width="50" height="50" relative="1" as="geometry">
            <mxPoint x="390" y="560" as="sourcePoint" />
            <mxPoint x="220" y="840" as="targetPoint" />
          </mxGeometry>
        </mxCell>
        <mxCell id="5Jb40xs0zZdn_Tac0p15-8" value="" style="endArrow=classic;html=1;rounded=0;exitX=0;exitY=0.5;exitDx=0;exitDy=0;" edge="1" parent="WIyWlLk6GJQsqaUBKTNV-1" source="5Jb40xs0zZdn_Tac0p15-5">
          <mxGeometry width="50" height="50" relative="1" as="geometry">
            <mxPoint x="390" y="500" as="sourcePoint" />
            <mxPoint x="160" y="210" as="targetPoint" />
            <Array as="points">
              <mxPoint x="50" y="870" />
              <mxPoint x="50" y="370" />
              <mxPoint x="50" y="210" />
            </Array>
          </mxGeometry>
        </mxCell>
        <mxCell id="5Jb40xs0zZdn_Tac0p15-9" value="&amp;nbsp;long x= input(&#39;digite an number, please Sr.:&#39;);" style="shape=parallelogram;perimeter=parallelogramPerimeter;whiteSpace=wrap;html=1;fixedSize=1;" vertex="1" parent="WIyWlLk6GJQsqaUBKTNV-1">
          <mxGeometry x="130" y="270" width="200" height="100" as="geometry" />
        </mxCell>
        <mxCell id="5Jb40xs0zZdn_Tac0p15-10" value="&amp;nbsp; n.add(x);" style="rounded=1;whiteSpace=wrap;html=1;" vertex="1" parent="WIyWlLk6GJQsqaUBKTNV-1">
          <mxGeometry x="150" y="400" width="120" height="60" as="geometry" />
        </mxCell>
        <mxCell id="5Jb40xs0zZdn_Tac0p15-11" value="" style="endArrow=classic;html=1;rounded=0;exitX=0.415;exitY=1.02;exitDx=0;exitDy=0;exitPerimeter=0;entryX=0.5;entryY=0;entryDx=0;entryDy=0;" edge="1" parent="WIyWlLk6GJQsqaUBKTNV-1" source="5Jb40xs0zZdn_Tac0p15-9" target="5Jb40xs0zZdn_Tac0p15-10">
          <mxGeometry width="50" height="50" relative="1" as="geometry">
            <mxPoint x="380" y="480" as="sourcePoint" />
            <mxPoint x="430" y="430" as="targetPoint" />
          </mxGeometry>
        </mxCell>
        <mxCell id="5Jb40xs0zZdn_Tac0p15-12" value="" style="endArrow=classic;html=1;rounded=0;exitX=0.5;exitY=1;exitDx=0;exitDy=0;entryX=0.45;entryY=0;entryDx=0;entryDy=0;entryPerimeter=0;" edge="1" parent="WIyWlLk6GJQsqaUBKTNV-1" source="5Jb40xs0zZdn_Tac0p15-10" target="5Jb40xs0zZdn_Tac0p15-2">
          <mxGeometry width="50" height="50" relative="1" as="geometry">
            <mxPoint x="380" y="480" as="sourcePoint" />
            <mxPoint x="430" y="430" as="targetPoint" />
          </mxGeometry>
        </mxCell>
        <mxCell id="5Jb40xs0zZdn_Tac0p15-13" value="&amp;nbsp;int x=0;" style="whiteSpace=wrap;html=1;aspect=fixed;" vertex="1" parent="WIyWlLk6GJQsqaUBKTNV-1">
          <mxGeometry x="360" y="160" width="80" height="80" as="geometry" />
        </mxCell>
        <mxCell id="5Jb40xs0zZdn_Tac0p15-14" value="while loop" style="text;html=1;strokeColor=none;fillColor=none;align=center;verticalAlign=middle;whiteSpace=wrap;rounded=0;" vertex="1" parent="WIyWlLk6GJQsqaUBKTNV-1">
          <mxGeometry x="130" y="160" width="60" height="30" as="geometry" />
        </mxCell>
        <mxCell id="5Jb40xs0zZdn_Tac0p15-15" value="for loop" style="text;html=1;strokeColor=none;fillColor=none;align=center;verticalAlign=middle;whiteSpace=wrap;rounded=0;" vertex="1" parent="WIyWlLk6GJQsqaUBKTNV-1">
          <mxGeometry x="490" y="180" width="60" height="30" as="geometry" />
        </mxCell>
        <mxCell id="5Jb40xs0zZdn_Tac0p15-16" value="i =array.leght-1" style="rhombus;whiteSpace=wrap;html=1;shadow=0;fontFamily=Helvetica;fontSize=12;align=center;strokeWidth=1;spacing=6;spacingTop=-4;" vertex="1" parent="WIyWlLk6GJQsqaUBKTNV-1">
          <mxGeometry x="560" y="170" width="100" height="70" as="geometry" />
        </mxCell>
        <mxCell id="5Jb40xs0zZdn_Tac0p15-17" value="&amp;nbsp;x += n[i];" style="rounded=1;whiteSpace=wrap;html=1;" vertex="1" parent="WIyWlLk6GJQsqaUBKTNV-1">
          <mxGeometry x="560" y="270" width="120" height="60" as="geometry" />
        </mxCell>
        <mxCell id="5Jb40xs0zZdn_Tac0p15-34" style="edgeStyle=orthogonalEdgeStyle;rounded=0;orthogonalLoop=1;jettySize=auto;html=1;" edge="1" parent="WIyWlLk6GJQsqaUBKTNV-1" source="5Jb40xs0zZdn_Tac0p15-18" target="5Jb40xs0zZdn_Tac0p15-29">
          <mxGeometry relative="1" as="geometry" />
        </mxCell>
        <mxCell id="5Jb40xs0zZdn_Tac0p15-18" value="&amp;nbsp;x =x/ array.leght;" style="rounded=1;whiteSpace=wrap;html=1;" vertex="1" parent="WIyWlLk6GJQsqaUBKTNV-1">
          <mxGeometry x="740" y="175" width="120" height="55" as="geometry" />
        </mxCell>
        <mxCell id="5Jb40xs0zZdn_Tac0p15-20" value="" style="endArrow=classic;html=1;rounded=0;exitX=1;exitY=0.5;exitDx=0;exitDy=0;" edge="1" parent="WIyWlLk6GJQsqaUBKTNV-1" source="5Jb40xs0zZdn_Tac0p15-13" target="5Jb40xs0zZdn_Tac0p15-16">
          <mxGeometry width="50" height="50" relative="1" as="geometry">
            <mxPoint x="540" y="390" as="sourcePoint" />
            <mxPoint x="590" y="340" as="targetPoint" />
          </mxGeometry>
        </mxCell>
        <mxCell id="5Jb40xs0zZdn_Tac0p15-21" value="" style="endArrow=classic;html=1;rounded=0;exitX=0.5;exitY=1;exitDx=0;exitDy=0;entryX=0.5;entryY=0;entryDx=0;entryDy=0;" edge="1" parent="WIyWlLk6GJQsqaUBKTNV-1" source="5Jb40xs0zZdn_Tac0p15-16" target="5Jb40xs0zZdn_Tac0p15-17">
          <mxGeometry relative="1" as="geometry">
            <mxPoint x="520" y="370" as="sourcePoint" />
            <mxPoint x="620" y="370" as="targetPoint" />
          </mxGeometry>
        </mxCell>
        <mxCell id="5Jb40xs0zZdn_Tac0p15-22" value="no&lt;br&gt;" style="edgeLabel;resizable=0;html=1;align=center;verticalAlign=middle;" connectable="0" vertex="1" parent="5Jb40xs0zZdn_Tac0p15-21">
          <mxGeometry relative="1" as="geometry" />
        </mxCell>
        <mxCell id="5Jb40xs0zZdn_Tac0p15-24" value="" style="endArrow=classic;html=1;rounded=0;exitX=-0.033;exitY=0.617;exitDx=0;exitDy=0;exitPerimeter=0;" edge="1" parent="WIyWlLk6GJQsqaUBKTNV-1" source="5Jb40xs0zZdn_Tac0p15-17">
          <mxGeometry width="50" height="50" relative="1" as="geometry">
            <mxPoint x="520" y="260" as="sourcePoint" />
            <mxPoint x="570" y="210" as="targetPoint" />
            <Array as="points">
              <mxPoint x="500" y="300" />
              <mxPoint x="500" y="230" />
            </Array>
          </mxGeometry>
        </mxCell>
        <mxCell id="5Jb40xs0zZdn_Tac0p15-25" value="" style="endArrow=classic;html=1;rounded=0;" edge="1" parent="WIyWlLk6GJQsqaUBKTNV-1">
          <mxGeometry relative="1" as="geometry">
            <mxPoint x="640" y="204.5" as="sourcePoint" />
            <mxPoint x="740" y="204.5" as="targetPoint" />
          </mxGeometry>
        </mxCell>
        <mxCell id="5Jb40xs0zZdn_Tac0p15-26" value="yes&lt;br&gt;" style="edgeLabel;resizable=0;html=1;align=center;verticalAlign=middle;" connectable="0" vertex="1" parent="5Jb40xs0zZdn_Tac0p15-25">
          <mxGeometry relative="1" as="geometry" />
        </mxCell>
        <mxCell id="5Jb40xs0zZdn_Tac0p15-37" style="edgeStyle=orthogonalEdgeStyle;rounded=0;orthogonalLoop=1;jettySize=auto;html=1;" edge="1" parent="WIyWlLk6GJQsqaUBKTNV-1" source="5Jb40xs0zZdn_Tac0p15-29">
          <mxGeometry relative="1" as="geometry">
            <mxPoint x="980" y="350" as="targetPoint" />
          </mxGeometry>
        </mxCell>
        <mxCell id="5Jb40xs0zZdn_Tac0p15-29" value="&amp;nbsp; n[i] = (x - n[i])^2;&amp;nbsp;" style="rhombus;whiteSpace=wrap;html=1;shadow=0;fontFamily=Helvetica;fontSize=12;align=center;strokeWidth=1;spacing=6;spacingTop=-4;" vertex="1" parent="WIyWlLk6GJQsqaUBKTNV-1">
          <mxGeometry x="710" y="310" width="120" height="70" as="geometry" />
        </mxCell>
        <mxCell id="5Jb40xs0zZdn_Tac0p15-36" style="edgeStyle=orthogonalEdgeStyle;rounded=0;orthogonalLoop=1;jettySize=auto;html=1;entryX=0;entryY=0.5;entryDx=0;entryDy=0;" edge="1" parent="WIyWlLk6GJQsqaUBKTNV-1" source="5Jb40xs0zZdn_Tac0p15-30" target="5Jb40xs0zZdn_Tac0p15-29">
          <mxGeometry relative="1" as="geometry">
            <Array as="points">
              <mxPoint x="710" y="440" />
              <mxPoint x="710" y="400" />
              <mxPoint x="690" y="400" />
              <mxPoint x="690" y="345" />
            </Array>
          </mxGeometry>
        </mxCell>
        <mxCell id="5Jb40xs0zZdn_Tac0p15-30" value="&amp;nbsp; n[i] = (x - n[i])^2;&amp;nbsp;" style="rounded=1;whiteSpace=wrap;html=1;" vertex="1" parent="WIyWlLk6GJQsqaUBKTNV-1">
          <mxGeometry x="730" y="410" width="120" height="60" as="geometry" />
        </mxCell>
        <mxCell id="5Jb40xs0zZdn_Tac0p15-31" value="" style="endArrow=classic;html=1;rounded=0;exitX=0.5;exitY=1;exitDx=0;exitDy=0;entryX=0.5;entryY=0;entryDx=0;entryDy=0;" edge="1" parent="WIyWlLk6GJQsqaUBKTNV-1" source="5Jb40xs0zZdn_Tac0p15-29" target="5Jb40xs0zZdn_Tac0p15-30">
          <mxGeometry relative="1" as="geometry">
            <mxPoint x="690" y="510" as="sourcePoint" />
            <mxPoint x="790" y="510" as="targetPoint" />
          </mxGeometry>
        </mxCell>
        <mxCell id="5Jb40xs0zZdn_Tac0p15-32" value="no&lt;br&gt;" style="edgeLabel;resizable=0;html=1;align=center;verticalAlign=middle;" connectable="0" vertex="1" parent="5Jb40xs0zZdn_Tac0p15-31">
          <mxGeometry relative="1" as="geometry" />
        </mxCell>
        <mxCell id="5Jb40xs0zZdn_Tac0p15-33" value="yes&lt;br&gt;" style="edgeLabel;resizable=0;html=1;align=center;verticalAlign=middle;" connectable="0" vertex="1" parent="WIyWlLk6GJQsqaUBKTNV-1">
          <mxGeometry x="860" y="344.5" as="geometry" />
        </mxCell>
        <mxCell id="5Jb40xs0zZdn_Tac0p15-35" value="for loop" style="text;html=1;align=center;verticalAlign=middle;resizable=0;points=[];autosize=1;strokeColor=none;fillColor=none;" vertex="1" parent="WIyWlLk6GJQsqaUBKTNV-1">
          <mxGeometry x="700" y="298" width="60" height="30" as="geometry" />
        </mxCell>
        <mxCell id="5Jb40xs0zZdn_Tac0p15-41" value="" style="edgeStyle=orthogonalEdgeStyle;rounded=0;orthogonalLoop=1;jettySize=auto;html=1;" edge="1" parent="WIyWlLk6GJQsqaUBKTNV-1" source="5Jb40xs0zZdn_Tac0p15-38" target="5Jb40xs0zZdn_Tac0p15-40">
          <mxGeometry relative="1" as="geometry" />
        </mxCell>
        <mxCell id="5Jb40xs0zZdn_Tac0p15-48" value="" style="edgeStyle=orthogonalEdgeStyle;rounded=0;orthogonalLoop=1;jettySize=auto;html=1;" edge="1" parent="WIyWlLk6GJQsqaUBKTNV-1" source="5Jb40xs0zZdn_Tac0p15-38" target="5Jb40xs0zZdn_Tac0p15-47">
          <mxGeometry relative="1" as="geometry" />
        </mxCell>
        <mxCell id="5Jb40xs0zZdn_Tac0p15-38" value="&amp;nbsp; n[i] = (x - n[i])^2;&amp;nbsp;" style="rhombus;whiteSpace=wrap;html=1;shadow=0;fontFamily=Helvetica;fontSize=12;align=center;strokeWidth=1;spacing=6;spacingTop=-4;" vertex="1" parent="WIyWlLk6GJQsqaUBKTNV-1">
          <mxGeometry x="980" y="320" width="120" height="70" as="geometry" />
        </mxCell>
        <mxCell id="5Jb40xs0zZdn_Tac0p15-39" value="for loop" style="text;html=1;align=center;verticalAlign=middle;resizable=0;points=[];autosize=1;strokeColor=none;fillColor=none;" vertex="1" parent="WIyWlLk6GJQsqaUBKTNV-1">
          <mxGeometry x="940" y="314.5" width="60" height="30" as="geometry" />
        </mxCell>
        <mxCell id="5Jb40xs0zZdn_Tac0p15-43" style="edgeStyle=orthogonalEdgeStyle;rounded=0;orthogonalLoop=1;jettySize=auto;html=1;entryX=0;entryY=0.5;entryDx=0;entryDy=0;sketch=1;curveFitting=1;jiggle=2;" edge="1" parent="WIyWlLk6GJQsqaUBKTNV-1" source="5Jb40xs0zZdn_Tac0p15-40" target="5Jb40xs0zZdn_Tac0p15-38">
          <mxGeometry relative="1" as="geometry">
            <Array as="points">
              <mxPoint x="960" y="470" />
              <mxPoint x="960" y="355" />
            </Array>
          </mxGeometry>
        </mxCell>
        <mxCell id="5Jb40xs0zZdn_Tac0p15-40" value="&amp;nbsp; x += n[i];" style="rounded=1;whiteSpace=wrap;html=1;" vertex="1" parent="WIyWlLk6GJQsqaUBKTNV-1">
          <mxGeometry x="970" y="430" width="120" height="60" as="geometry" />
        </mxCell>
        <mxCell id="5Jb40xs0zZdn_Tac0p15-42" value="no" style="text;html=1;align=center;verticalAlign=middle;resizable=0;points=[];autosize=1;strokeColor=none;fillColor=none;" vertex="1" parent="WIyWlLk6GJQsqaUBKTNV-1">
          <mxGeometry x="1010" y="388" width="40" height="30" as="geometry" />
        </mxCell>
        <mxCell id="5Jb40xs0zZdn_Tac0p15-52" value="" style="edgeStyle=orthogonalEdgeStyle;rounded=0;orthogonalLoop=1;jettySize=auto;html=1;" edge="1" parent="WIyWlLk6GJQsqaUBKTNV-1" source="5Jb40xs0zZdn_Tac0p15-47" target="5Jb40xs0zZdn_Tac0p15-51">
          <mxGeometry relative="1" as="geometry" />
        </mxCell>
        <mxCell id="5Jb40xs0zZdn_Tac0p15-47" value="&amp;nbsp;x" style="shape=hexagon;perimeter=hexagonPerimeter2;whiteSpace=wrap;html=1;fixedSize=1;" vertex="1" parent="WIyWlLk6GJQsqaUBKTNV-1">
          <mxGeometry x="1150" y="320" width="120" height="80" as="geometry" />
        </mxCell>
        <mxCell id="5Jb40xs0zZdn_Tac0p15-49" value="yes" style="text;html=1;align=center;verticalAlign=middle;resizable=0;points=[];autosize=1;strokeColor=none;fillColor=none;" vertex="1" parent="WIyWlLk6GJQsqaUBKTNV-1">
          <mxGeometry x="1090" y="318" width="40" height="30" as="geometry" />
        </mxCell>
        <mxCell id="5Jb40xs0zZdn_Tac0p15-50" value="im forget simbol of display message.&lt;br&gt;sorry..." style="shape=callout;whiteSpace=wrap;html=1;perimeter=calloutPerimeter;" vertex="1" parent="WIyWlLk6GJQsqaUBKTNV-1">
          <mxGeometry x="1190" y="210" width="120" height="80" as="geometry" />
        </mxCell>
        <mxCell id="5Jb40xs0zZdn_Tac0p15-51" value="end" style="ellipse;whiteSpace=wrap;html=1;aspect=fixed;" vertex="1" parent="WIyWlLk6GJQsqaUBKTNV-1">
          <mxGeometry x="1340" y="320" width="80" height="80" as="geometry" />
        </mxCell>
        <mxCell id="5Jb40xs0zZdn_Tac0p15-55" value="" style="edgeStyle=orthogonalEdgeStyle;rounded=0;orthogonalLoop=1;jettySize=auto;html=1;" edge="1" parent="WIyWlLk6GJQsqaUBKTNV-1" source="5Jb40xs0zZdn_Tac0p15-54" target="5Jb40xs0zZdn_Tac0p15-0">
          <mxGeometry relative="1" as="geometry" />
        </mxCell>
        <mxCell id="5Jb40xs0zZdn_Tac0p15-54" value="begin" style="ellipse;whiteSpace=wrap;html=1;aspect=fixed;" vertex="1" parent="WIyWlLk6GJQsqaUBKTNV-1">
          <mxGeometry x="190" y="-160" width="80" height="80" as="geometry" />
        </mxCell>
      </root>
    </mxGraphModel>
  </diagram>
</mxfile>
